<?xml version="1.0" encoding="UTF-8" standalone="no"?>
<svg
   xmlns:dc="http://purl.org/dc/elements/1.1/"
   xmlns:cc="http://creativecommons.org/ns#"
   xmlns:rdf="http://www.w3.org/1999/02/22-rdf-syntax-ns#"
   xmlns:svg="http://www.w3.org/2000/svg"
   xmlns="http://www.w3.org/2000/svg"
   xmlns:sodipodi="http://sodipodi.sourceforge.net/DTD/sodipodi-0.dtd"
   xmlns:inkscape="http://www.inkscape.org/namespaces/inkscape"
   inkscape:version="1.0 (4035a4fb49, 2020-05-01)"
   sodipodi:docname="day-and-night_.svg"
   version="1.1"
   width="512"
   viewBox="0 0 512 512"
   height="512"
   enable-background="new 0 0 512 512"
   id="Capa_1">
  <metadata
     id="metadata970">
    <rdf:RDF>
      <cc:Work
         rdf:about="">
        <dc:format>image/svg+xml</dc:format>
        <dc:type
           rdf:resource="http://purl.org/dc/dcmitype/StillImage" />
        <dc:title></dc:title>
      </cc:Work>
    </rdf:RDF>
  </metadata>
  <defs
     id="defs968">
    <filter
       id="filter976"
       inkscape:label="Invert"
       style="color-interpolation-filters:sRGB;">
      <feColorMatrix
         id="feColorMatrix972"
         result="color1"
         values="180"
         type="hueRotate" />
      <feColorMatrix
         id="feColorMatrix974"
         result="color2"
         values="-1 0 0 0 1 0 -1 0 0 1 0 0 -1 0 1 -0.21 -0.72 -0.07 2 0 " />
    </filter>
  </defs>
  <sodipodi:namedview
     inkscape:current-layer="Capa_1"
     inkscape:window-maximized="0"
     inkscape:window-y="25"
     inkscape:window-x="970"
     inkscape:cy="469.93237"
     inkscape:cx="341.56108"
     inkscape:zoom="0.43115234"
     showgrid="false"
     id="namedview966"
     inkscape:window-height="1007"
     inkscape:window-width="921"
     inkscape:pageshadow="2"
     inkscape:pageopacity="0"
     guidetolerance="10"
     gridtolerance="10"
     objecttolerance="10"
     borderopacity="1"
     bordercolor="#666666"
     pagecolor="#ffffff" />
  <g
     style="filter:url(#filter976)"
     id="g963">
    <g
       id="g949">
      <g
         id="g947">
        <g
           id="g945">
          <path
             id="path943"
             d="m152.924 512c-84.322 0-152.924-68.601-152.924-152.924 0-68.932 46.529-129.598 113.151-147.528 5.758-1.551 11.887.458 15.612 5.114s4.338 11.077 1.562 16.354c-9.371 17.813-14.123 37.024-14.123 57.099 0 67.78 55.144 122.923 122.924 122.923 10.458 0 21.216-1.468 31.976-4.364 5.759-1.55 11.886.458 15.612 5.114 3.725 4.656 4.338 11.076 1.562 16.354-26.561 50.492-78.425 81.858-135.352 81.858z" />
        </g>
      </g>
    </g>
    <g
       id="g955">
      <path
         id="path951"
         d="m509.308 139.609-23.242-33.365-.803-40.657c-.124-6.283-4.151-11.823-10.09-13.878l-38.422-13.302-24.507-32.447c-3.794-5.022-10.32-7.143-16.34-5.308l-38.904 11.85-38.901-11.85c-6.022-1.834-12.547.286-16.34 5.308l-24.509 32.445-38.422 13.301c-5.938 2.056-9.965 7.595-10.09 13.878l-.804 40.658-23.242 33.367c-3.589 5.152-3.589 11.995 0 17.147l23.242 33.364.803 40.658c.124 6.283 4.151 11.823 10.09 13.878l38.422 13.302 24.508 32.446c3.794 5.022 10.319 7.142 16.34 5.308l38.903-11.849 38.902 11.85c1.442.439 2.913.652 4.369.652 4.621 0 9.086-2.141 11.97-5.96l24.509-32.445 38.422-13.301c5.938-2.056 9.965-7.595 10.09-13.878l.804-40.658 23.242-33.367c3.589-5.152 3.589-11.995 0-17.147zm-152.308 103.574c-52.383 0-95-42.617-95-95s42.617-95 95-95 95 42.617 95 95-42.617 95-95 95z" />
      <circle
         id="circle953"
         r="65"
         cy="148.183"
         cx="357" />
    </g>
    <g
       id="g961">
      <path
         id="path957"
         d="m507.606 365.394-40-40c-5.857-5.858-15.355-5.858-21.213 0l-40 40c-5.858 5.858-5.858 15.355 0 21.213 5.857 5.858 15.355 5.858 21.213 0l12.891-12.891c-8.444 49.49-51.636 87.284-103.497 87.284h-20c-8.284 0-15 6.716-15 15s6.716 15 15 15h20c69.254 0 126.484-52.42 134.124-119.663l15.27 15.27c2.928 2.929 6.767 4.393 10.606 4.393s7.678-1.464 10.606-4.394c5.858-5.857 5.858-15.355 0-21.212z" />
      <path
         id="path959"
         d="m195 21h-20c-69.254 0-126.484 52.42-134.124 119.663l-15.27-15.27c-5.857-5.858-15.355-5.858-21.213 0s-5.858 15.355 0 21.213l40 40c2.929 2.93 6.768 4.394 10.607 4.394s7.678-1.464 10.606-4.394l40-40c5.858-5.858 5.858-15.355 0-21.213-5.857-5.858-15.355-5.858-21.213 0l-12.891 12.891c8.445-49.49 51.637-87.284 103.498-87.284h20c8.284 0 15-6.716 15-15s-6.716-15-15-15z" />
    </g>
  </g>
</svg>
